<mxfile host="65bd71144e">
    <diagram id="gc295pnCZp4UDMRrbmP4" name="第1頁">
        <mxGraphModel dx="1987" dy="1155" grid="0" gridSize="10" guides="1" tooltips="1" connect="1" arrows="1" fold="1" page="0" pageScale="1" pageWidth="850" pageHeight="1100" math="0" shadow="0">
            <root>
                <mxCell id="0"/>
                <mxCell id="1" parent="0"/>
                <mxCell id="16" style="edgeStyle=orthogonalEdgeStyle;html=1;exitX=0.5;exitY=1;exitDx=0;exitDy=0;fontSize=16;endArrow=open;endFill=0;entryX=0.5;entryY=0;entryDx=0;entryDy=0;rounded=0;" parent="1" source="2" target="26" edge="1">
                    <mxGeometry relative="1" as="geometry">
                        <mxPoint x="318.5" y="367" as="targetPoint"/>
                    </mxGeometry>
                </mxCell>
                <mxCell id="23" style="edgeStyle=orthogonalEdgeStyle;html=1;exitX=0.5;exitY=0;exitDx=0;exitDy=0;entryX=0.5;entryY=1;entryDx=0;entryDy=0;fontSize=16;startArrow=none;startFill=0;endArrow=block;endFill=0;" parent="1" source="2" target="24" edge="1">
                    <mxGeometry relative="1" as="geometry">
                        <mxPoint x="312.5" y="164" as="targetPoint"/>
                    </mxGeometry>
                </mxCell>
                <mxCell id="2" value="Commander" style="rounded=0;whiteSpace=wrap;html=1;fontSize=16;fillColor=#e3c800;strokeColor=#B09500;fontColor=#000000;" parent="1" vertex="1">
                    <mxGeometry x="215" y="219" width="194" height="60" as="geometry"/>
                </mxCell>
                <mxCell id="17" style="edgeStyle=orthogonalEdgeStyle;html=1;exitX=1;exitY=0.5;exitDx=0;exitDy=0;entryX=0;entryY=0.5;entryDx=0;entryDy=0;fontSize=16;endArrow=open;endFill=0;dashed=1;" parent="1" source="26" target="27" edge="1">
                    <mxGeometry relative="1" as="geometry">
                        <mxPoint x="415" y="397" as="sourcePoint"/>
                        <mxPoint x="625" y="397" as="targetPoint"/>
                    </mxGeometry>
                </mxCell>
                <mxCell id="9" style="edgeStyle=orthogonalEdgeStyle;html=1;exitX=0.5;exitY=0;exitDx=0;exitDy=0;fontSize=16;endArrow=block;endFill=0;" parent="1" source="8" target="27" edge="1">
                    <mxGeometry relative="1" as="geometry">
                        <mxPoint x="617.5" y="427" as="targetPoint"/>
                    </mxGeometry>
                </mxCell>
                <mxCell id="41" style="edgeStyle=orthogonalEdgeStyle;rounded=0;html=1;exitX=0.5;exitY=1;exitDx=0;exitDy=0;endArrow=classic;endFill=1;startArrow=classic;startFill=1;" parent="1" source="8" target="14" edge="1">
                    <mxGeometry relative="1" as="geometry"/>
                </mxCell>
                <mxCell id="8" value="JSONStorage" style="rounded=0;whiteSpace=wrap;html=1;fontSize=16;fillColor=#e3c800;fontColor=#000000;strokeColor=#B09500;" parent="1" vertex="1">
                    <mxGeometry x="521" y="607" width="193" height="60" as="geometry"/>
                </mxCell>
                <mxCell id="13" style="edgeStyle=orthogonalEdgeStyle;html=1;exitX=0.5;exitY=0;exitDx=0;exitDy=0;entryX=0.5;entryY=1;entryDx=0;entryDy=0;fontSize=16;endArrow=block;endFill=0;rounded=0;" parent="1" source="10" target="26" edge="1">
                    <mxGeometry relative="1" as="geometry">
                        <mxPoint x="366.75" y="427" as="targetPoint"/>
                    </mxGeometry>
                </mxCell>
                <mxCell id="10" value="CollectOperator" style="rounded=0;whiteSpace=wrap;html=1;fontSize=16;fillColor=#e3c800;fontColor=#000000;strokeColor=#B09500;" parent="1" vertex="1">
                    <mxGeometry x="215" y="607" width="193" height="60" as="geometry"/>
                </mxCell>
                <mxCell id="14" value="Data&lt;br&gt;Store" style="shape=cylinder3;whiteSpace=wrap;html=1;boundedLbl=1;backgroundOutline=1;size=15;fontSize=16;" parent="1" vertex="1">
                    <mxGeometry x="544.5" y="802" width="146" height="124" as="geometry"/>
                </mxCell>
                <mxCell id="24" value="«interface»&lt;br style=&quot;font-size: 16px;&quot;&gt;&lt;b style=&quot;font-size: 16px;&quot;&gt;ICommander&lt;/b&gt;" style="html=1;fillColor=#a20025;strokeColor=#6F0000;fontColor=#ffffff;fontSize=16;" parent="1" vertex="1">
                    <mxGeometry x="216" y="80" width="193" height="60" as="geometry"/>
                </mxCell>
                <mxCell id="26" value="«interface»&lt;br style=&quot;font-size: 16px;&quot;&gt;&lt;b style=&quot;font-size: 16px;&quot;&gt;IResouceOperator&lt;/b&gt;" style="html=1;fillColor=#a20025;strokeColor=#6F0000;fontColor=#ffffff;fontSize=16;" parent="1" vertex="1">
                    <mxGeometry x="215" y="367" width="193" height="60" as="geometry"/>
                </mxCell>
                <mxCell id="27" value="«interface»&lt;br style=&quot;font-size: 16px;&quot;&gt;&lt;b style=&quot;font-size: 16px;&quot;&gt;IStorage&lt;/b&gt;" style="html=1;fillColor=#a20025;strokeColor=#6F0000;fontColor=#ffffff;fontSize=16;" parent="1" vertex="1">
                    <mxGeometry x="521" y="367" width="193" height="60" as="geometry"/>
                </mxCell>
                <mxCell id="44" style="edgeStyle=none;html=1;exitX=0.5;exitY=0;exitDx=0;exitDy=0;" edge="1" parent="1" source="32" target="35">
                    <mxGeometry relative="1" as="geometry"/>
                </mxCell>
                <mxCell id="32" value="WebSocketClient" style="rounded=0;whiteSpace=wrap;html=1;fontSize=16;fillColor=#60a917;fontColor=#ffffff;strokeColor=#2D7600;" parent="1" vertex="1">
                    <mxGeometry x="-71" y="604" width="193" height="60" as="geometry"/>
                </mxCell>
                <mxCell id="37" style="edgeStyle=orthogonalEdgeStyle;rounded=0;html=1;exitX=1;exitY=0.5;exitDx=0;exitDy=0;endArrow=open;endFill=0;" parent="1" source="35" target="26" edge="1">
                    <mxGeometry relative="1" as="geometry"/>
                </mxCell>
                <mxCell id="35" value="«interface»&lt;br style=&quot;font-size: 16px;&quot;&gt;&lt;b style=&quot;font-size: 16px;&quot;&gt;WebSocketClient&lt;/b&gt;" style="html=1;fillColor=#a20025;strokeColor=#6F0000;fontColor=#ffffff;fontSize=16;" parent="1" vertex="1">
                    <mxGeometry x="-71" y="367" width="193" height="60" as="geometry"/>
                </mxCell>
            </root>
        </mxGraphModel>
    </diagram>
</mxfile>